REM DIRINDEX 1\2,1\3,1\4,1\5
REM DIRNAME "folder01","folder02","folder03","folder04","folder05"
TITLE ""
FILE "P1Q_j_1721-1734.mp3" MP3
  TRACK 01 AUDIO
    TITLE "0:"
    INDEX 01 00:00:00
  TRACK 02 AUDIO
    TITLE "3:cjc173_0364"
    INDEX 01 00:00:14
  TRACK 03 AUDIO
    TITLE "0:"
    INDEX 01 00:02:01
  TRACK 04 AUDIO
    TITLE "4:cjc173_0365"
    INDEX 01 00:02:21
  TRACK 05 AUDIO
    TITLE "0:"
    INDEX 01 00:06:56
  TRACK 06 AUDIO
    TITLE "5:cjc173_0366"
    INDEX 01 00:07:01
  TRACK 07 AUDIO
    TITLE "0:"
    INDEX 01 00:12:23
  TRACK 08 AUDIO
    TITLE "3:cjc173_0367"
    INDEX 01 00:12:68
  TRACK 09 AUDIO
    TITLE "0:"
    INDEX 01 00:14:38
  TRACK 10 AUDIO
    TITLE "4:cjc173_0368"
    INDEX 01 00:14:57
  TRACK 11 AUDIO
    TITLE "0:"
    INDEX 01 00:16:50
  TRACK 12 AUDIO
    TITLE "5:cjc173_0369"
    INDEX 01 00:16:70
  TRACK 13 AUDIO
    TITLE "0:"
    INDEX 01 00:20:29
  TRACK 14 AUDIO
    TITLE "3:cjc173_0370"
    INDEX 01 00:20:74
  TRACK 15 AUDIO
    TITLE "0:"
    INDEX 01 00:22:31
  TRACK 16 AUDIO
    TITLE "4:cjc173_0371"
    INDEX 01 00:22:51
  TRACK 17 AUDIO
    TITLE "0:"
    INDEX 01 00:24:28
  TRACK 18 AUDIO
    TITLE "5:cjc173_0372"
    INDEX 01 00:24:46
  TRACK 19 AUDIO
    TITLE "0:"
    INDEX 01 00:28:13
  TRACK 20 AUDIO
    TITLE "3:cjc173_0373"
    INDEX 01 00:28:58
  TRACK 21 AUDIO
    TITLE "0:"
    INDEX 01 00:30:33
  TRACK 22 AUDIO
    TITLE "4:cjc173_0374"
    INDEX 01 00:30:54
  TRACK 23 AUDIO
    TITLE "0:"
    INDEX 01 00:34:19
  TRACK 24 AUDIO
    TITLE "5:cjc173_0375"
    INDEX 01 00:34:39
  TRACK 25 AUDIO
    TITLE "0:"
    INDEX 01 00:39:26
  TRACK 26 AUDIO
    TITLE "3:cjc173_0376"
    INDEX 01 00:39:71
  TRACK 27 AUDIO
    TITLE "0:"
    INDEX 01 00:41:33
  TRACK 28 AUDIO
    TITLE "4:cjc173_0377"
    INDEX 01 00:41:52
  TRACK 29 AUDIO
    TITLE "0:"
    INDEX 01 00:47:20
  TRACK 30 AUDIO
    TITLE "5:cjc173_0378"
    INDEX 01 00:47:39
  TRACK 31 AUDIO
    TITLE "0:"
    INDEX 01 00:53:10
  TRACK 32 AUDIO
    TITLE "3:cjc173_0379"
    INDEX 01 00:53:57
  TRACK 33 AUDIO
    TITLE "0:"
    INDEX 01 00:55:31
  TRACK 34 AUDIO
    TITLE "4:cjc173_0380"
    INDEX 01 00:55:52
  TRACK 35 AUDIO
    TITLE "0:"
    INDEX 01 01:01:45
  TRACK 36 AUDIO
    TITLE "5:cjc173_0381"
    INDEX 01 01:01:65
  TRACK 37 AUDIO
    TITLE "0:"
    INDEX 01 01:08:26
  TRACK 38 AUDIO
    TITLE "3:cjc173_0382"
    INDEX 01 01:08:71
  TRACK 39 AUDIO
    TITLE "0:"
    INDEX 01 01:10:38
  TRACK 40 AUDIO
    TITLE "4:cjc173_0383"
    INDEX 01 01:10:58
  TRACK 41 AUDIO
    TITLE "0:"
    INDEX 01 01:16:47
  TRACK 42 AUDIO
    TITLE "5:cjc173_0384"
    INDEX 01 01:16:66
  TRACK 43 AUDIO
    TITLE "0:"
    INDEX 01 01:21:66
  TRACK 44 AUDIO
    TITLE "3:cjc173_0385"
    INDEX 01 01:22:38
  TRACK 45 AUDIO
    TITLE "0:"
    INDEX 01 01:23:70
  TRACK 46 AUDIO
    TITLE "4:cjc173_0386"
    INDEX 01 01:24:17
  TRACK 47 AUDIO
    TITLE "0:"
    INDEX 01 01:28:07
  TRACK 48 AUDIO
    TITLE "5:cjc173_0387"
    INDEX 01 01:28:26
  TRACK 49 AUDIO
    TITLE "0:"
    INDEX 01 01:34:27
  TRACK 50 AUDIO
    TITLE "3:cjc173_0388"
    INDEX 01 01:34:74
  TRACK 51 AUDIO
    TITLE "0:"
    INDEX 01 01:37:27
  TRACK 52 AUDIO
    TITLE "4:cjc173_0389"
    INDEX 01 01:37:47
  TRACK 53 AUDIO
    TITLE "0:"
    INDEX 01 01:39:44
  TRACK 54 AUDIO
    TITLE "5:cjc173_0390"
    INDEX 01 01:39:64
  TRACK 55 AUDIO
    TITLE "0:"
    INDEX 01 01:44:63
  TRACK 56 AUDIO
    TITLE "3:cjc173_0391"
    INDEX 01 01:45:35
  TRACK 57 AUDIO
    TITLE "0:"
    INDEX 01 01:46:69
  TRACK 58 AUDIO
    TITLE "4:cjc173_0392"
    INDEX 01 01:47:14
  TRACK 59 AUDIO
    TITLE "0:"
    INDEX 01 01:50:03
  TRACK 60 AUDIO
    TITLE "5:cjc173_0393"
    INDEX 01 01:50:20
  TRACK 61 AUDIO
    TITLE "0:"
    INDEX 01 01:54:47
  TRACK 62 AUDIO
    TITLE "3:cjc173_0394"
    INDEX 01 01:55:17
  TRACK 63 AUDIO
    TITLE "0:"
    INDEX 01 01:56:40
  TRACK 64 AUDIO
    TITLE "4:cjc173_0395"
    INDEX 01 01:56:62
  TRACK 65 AUDIO
    TITLE "0:"
    INDEX 01 02:00:24
  TRACK 66 AUDIO
    TITLE "5:cjc173_0396"
    INDEX 01 02:00:42
  TRACK 67 AUDIO
    TITLE "0:"
    INDEX 01 02:03:70
  TRACK 68 AUDIO
    TITLE "3:cjc173_0397"
    INDEX 01 02:04:40
  TRACK 69 AUDIO
    TITLE "0:"
    INDEX 01 02:05:61
  TRACK 70 AUDIO
    TITLE "4:cjc173_0398"
    INDEX 01 02:06:07
  TRACK 71 AUDIO
    TITLE "0:"
    INDEX 01 02:07:36
  TRACK 72 AUDIO
    TITLE "5:cjc173_0399"
    INDEX 01 02:07:56
  TRACK 73 AUDIO
    TITLE "0:"
    INDEX 01 02:11:13
  TRACK 74 AUDIO
    TITLE "3:cjc173_0400"
    INDEX 01 02:11:58
  TRACK 75 AUDIO
    TITLE "0:"
    INDEX 01 02:13:10
  TRACK 76 AUDIO
    TITLE "4:cjc173_0401"
    INDEX 01 02:13:31
  TRACK 77 AUDIO
    TITLE "0:"
    INDEX 01 02:19:30
  TRACK 78 AUDIO
    TITLE "5:cjc173_0402"
    INDEX 01 02:19:49
  TRACK 79 AUDIO
    TITLE "0:"
    INDEX 01 02:25:30
  TRACK 80 AUDIO
    TITLE "3:cjc173_0403"
    INDEX 01 02:26:02
  TRACK 81 AUDIO
    TITLE "0:"
    INDEX 01 02:27:17
  TRACK 82 AUDIO
    TITLE "4:cjc173_0404"
    INDEX 01 02:27:39
  TRACK 83 AUDIO
    TITLE "0:"
    INDEX 01 02:29:52
  TRACK 84 AUDIO
    TITLE "5:cjc173_0405"
    INDEX 01 02:29:71
  TRACK 85 AUDIO
    TITLE "0:"
    INDEX 01 02:32:66
